# xmcd CD database file
#
# Track frame offsets:
#	150
#	14990
#	38712
#	61600
#	87582
#	110862
#	132632
#	148040
#	171417
#	192767
#
# Disc length: 2904 seconds
#
# Revision: 4
# Processed by: cddbd v1.5PL3 Copyright (c) Steve Scherf et al.
# Submitted via: CDex 1.50beta8
#
DISCID=980b560a
DTITLE=Brian Eno - Taking Tiger Mountain By Strategy
DYEAR=1974
DGENRE=Rock
TTITLE0=Burning Airlines Give You So Much More
TTITLE1=Back In Judy's Jungle
TTITLE2=The Fat Lady Of Limbourg
TTITLE3=Mother Whale Eyeless
TTITLE4=The Great Pretender
TTITLE5=Third Uncle
TTITLE6=Put A Straw Under Baby
TTITLE7=The True Wheel
TTITLE8=China My China
TTITLE9=Taking Tiger Mountain
EXTD=YEAR: 1974
EXTT0=
EXTT1=
EXTT2=
EXTT3=
EXTT4=
EXTT5=
EXTT6=
EXTT7=
EXTT8=
EXTT9=
PLAYORDER=
